<?xml version="1.0" standalone="no"?>
<!DOCTYPE svg PUBLIC "-//W3C//DTD SVG 20010904//EN"
 "http://www.w3.org/TR/2001/REC-SVG-20010904/DTD/svg10.dtd">
<svg version="1.0" xmlns="http://www.w3.org/2000/svg"
 viewBox="0 0 512.000000 512.000000"
 preserveAspectRatio="xMidYMid meet">

<g transform="translate(0.000000,512.000000) scale(0.100000,-0.100000)"
fill="#000000" stroke="none">
<path d="M2430 5105 c-36 -8 -99 -31 -140 -51 -70 -34 -100 -62 -428 -388
-194 -193 -363 -367 -375 -386 -33 -53 -31 -153 5 -207 49 -75 137 -107 228
-84 41 11 78 45 390 361 311 315 349 350 390 360 55 15 122 7 164 -20 18 -10
173 -163 344 -339 172 -176 329 -330 350 -343 56 -35 154 -33 209 4 75 50 107
137 83 228 -11 40 -49 82 -367 401 -376 378 -414 410 -543 450 -86 27 -225 33
-310 14z"/>
<path d="M2405 3254 c-40 -7 -111 -34 -165 -60 -79 -39 -110 -62 -181 -133
-71 -71 -94 -102 -133 -181 -101 -206 -101 -414 0 -620 39 -79 62 -110 133
-181 72 -72 102 -94 181 -132 288 -140 598 -84 818 147 118 125 192 307 192
476 0 169 -74 351 -192 476 -174 183 -406 257 -653 208z m279 -418 c105 -51
161 -144 161 -266 0 -85 -21 -142 -74 -203 -82 -92 -237 -121 -353 -64 -160
79 -215 278 -118 430 80 126 246 170 384 103z"/>
<path d="M1592 1129 c-48 -14 -109 -80 -123 -131 -14 -53 -5 -120 20 -162 11
-17 179 -189 373 -382 328 -326 358 -354 428 -388 188 -91 401 -84 577 20 45
27 157 132 416 393 318 319 356 361 367 401 42 159 -90 292 -250 251 -41 -11
-78 -45 -390 -361 -311 -315 -349 -350 -390 -360 -55 -15 -122 -7 -164 20 -18
10 -173 163 -344 339 -172 176 -328 329 -347 341 -40 25 -125 34 -173 19z"/>
</g>
</svg>
