<svg width="162" height="100" fill="none" xmlns="http://www.w3.org/2000/svg"><g opacity=".15"><path opacity=".9" d="m160.272 96.44-16.967-40.51c11.045-4.413 18.42-13.66 18.42-26.793 0-18.601-14.205-29.064-33.951-29.064H91.952a2.489 2.489 0 0 0-2.416 1.816L62.288 95.95a3.16 3.16 0 0 0 2.18 3.924c.282.087.577.13.872.127h92.643a2.507 2.507 0 0 0 2.507-2.507 2.548 2.548 0 0 0-.218-1.054Z" fill="url(#a)"/><path d="M55.822 98.11 83.306 3.234A2.507 2.507 0 0 0 81.598.127a2.87 2.87 0 0 0-.69 0L2.507 0A2.507 2.507 0 0 0 0 2.507c-.002.271.04.542.127.8L32.334 98.22a2.507 2.507 0 0 0 2.38 1.689H53.37a2.489 2.489 0 0 0 2.452-1.798Z" fill="#fff"/></g><defs><radialGradient id="a" cx="0" cy="0" r="1" gradientUnits="userSpaceOnUse" gradientTransform="rotate(164.85 77.677 13.447) scale(113.47 113.83)"><stop stop-color="#fff" stop-opacity=".9"/><stop offset="1" stop-color="#fff" stop-opacity=".01"/></radialGradient></defs></svg>