<svg width="16" height="16" fill="none" xmlns="http://www.w3.org/2000/svg"><path d="M8 16A8 8 0 1 0 8 0a8 8 0 0 0 0 16z" fill="#F0F0F0"/><path d="M1.654 3.129A7.97 7.97 0 0 0 .275 5.913h4.162L1.654 3.129zM15.724 5.913a7.97 7.97 0 0 0-1.378-2.784l-2.784 2.784h4.162zM.275 10.087a7.972 7.972 0 0 0 1.379 2.784l2.783-2.784H.275zM12.87 1.654A7.971 7.971 0 0 0 10.088.275v4.162l2.784-2.783zM3.129 14.346a7.971 7.971 0 0 0 2.784 1.379v-4.162l-2.784 2.783zM5.912.275A7.971 7.971 0 0 0 3.13 1.654l2.783 2.783V.275zM10.087 15.725a7.97 7.97 0 0 0 2.784-1.379l-2.784-2.783v4.162zM11.563 10.087l2.783 2.784a7.97 7.97 0 0 0 1.378-2.784h-4.162z" fill="#0052B4"/><path d="M15.932 6.957H9.044V.067a8.08 8.08 0 0 0-2.087 0v6.89H.067a8.08 8.08 0 0 0 0 2.086h6.89v6.89a8.091 8.091 0 0 0 2.086 0v-6.89h6.89a8.091 8.091 0 0 0 0-2.086z" fill="#D80027"/><path d="m10.087 10.087 3.57 3.57c.164-.165.32-.336.47-.514l-3.056-3.056h-.984zM5.913 10.087l-3.57 3.57c.164.164.335.32.513.47l3.057-3.056v-.984zM5.913 5.913l-3.57-3.57c-.164.164-.32.335-.47.513L4.93 5.913h.984zM10.087 5.913l3.57-3.57a7.997 7.997 0 0 0-.514-.47L10.087 4.93v.983z" fill="#D80027"/></svg>