<svg width="83" height="55" fill="none" xmlns="http://www.w3.org/2000/svg"><path d="M82.865 15.177c.011-.141.037-.281.037-.424v-.013c.019-.084.043-.167.039-.258C82.554 6.362 64.34 0 41.473 0 18.217 0 0 6.48 0 14.752c0 .141.026.279.037.418v26.267c0 .05.022.091.029.139-.012.048-.038.09-.043.141a5.91 5.91 0 0 0-.023.518c0 5.365 7.592 10.13 20.31 12.744a1.013 1.013 0 0 0 1.195-.788c.009-.045-.003-.088 0-.132.007-.049.028-.092.028-.143V31.289c5.883-1.134 12.68-1.783 19.819-1.783 7.24 0 14.103.668 20.017 1.82v22.588c0 .05.02.094.027.143.004.044-.008.087 0 .132a1.012 1.012 0 0 0 1.196.788c12.717-2.615 20.31-7.379 20.31-12.744 0-.241-.022-.483-.053-.724.002-.025.015-.048.015-.073V15.177zM63.394 29.66v-2.34c8.411-1.824 14.48-4.599 17.447-7.866v18.16c-2.998-3.37-9.228-6.16-17.447-7.953zm-43.884-.007c-8.09 1.755-14.348 4.47-17.448 7.748V19.454c2.965 3.268 9.036 6.043 17.447 7.865v2.334zm0 23.075C8.85 50.348 2.024 46.284 2.024 42.234c0-.11.005-.224.016-.336.007-.078-.015-.151-.025-.228.02-.077.047-.15.047-.233v-.644c.11-.09.206-.2.272-.338 1.76-3.654 8.245-6.78 17.176-8.747v21.02h-.002zM41.352 27.48c-7.15 0-13.91.634-19.82 1.76v-2.58c0-.018-.008-.032-.01-.05a1.002 1.002 0 0 0-.788-1.094C9.677 23.245 2.447 19.185 2.062 15.095v-.647c0-.017-.008-.03-.01-.046.586-6.045 16.27-12.378 39.421-12.378 21.967 0 37.385 5.8 39.252 11.556.006.052-.004.101.011.152.061.218.096.437.117.656-.001.021-.012.038-.012.06v.652c-.391 4.088-7.62 8.146-18.674 10.417-.513.105-.84.584-.787 1.095-.001.017-.01.031-.01.05v2.585c-5.907-1.13-12.713-1.766-20.017-1.766zm22.04 25.247V31.75c9.94 2.211 16.766 5.842 17.37 9.944.016.103.054.195.097.284.006.085.019.17.019.255 0 4.051-6.828 8.115-17.485 10.495z" fill="#44EF00"/><path d="M45.456 10.702a1.01 1.01 0 0 0-1.42.01l-6.741 6.742-2.684-2.684a1.042 1.042 0 0 0-1.43 0l-8.818 8.819a1.011 1.011 0 1 0 1.431 1.43l8.102-8.102 2.683 2.684.004.003 4.093 4.092a1.01 1.01 0 0 0 1.431 0 1.011 1.011 0 0 0 0-1.431l-3.38-3.381 6.035-6.036 11.832 11.468a1.012 1.012 0 1 0 1.408-1.452L45.456 10.702zM33.402 11.59a3.747 3.747 0 0 0 3.743-3.743 3.747 3.747 0 0 0-3.743-3.743 3.747 3.747 0 0 0-3.743 3.743 3.747 3.747 0 0 0 3.743 3.744zm0-5.461a1.72 1.72 0 0 1 1.719 1.718 1.72 1.72 0 0 1-1.719 1.72 1.721 1.721 0 0 1-1.719-1.72c0-.947.77-1.718 1.72-1.718z" fill="#44EF00"/></svg>