<svg width="76" height="60" fill="none" xmlns="http://www.w3.org/2000/svg"><path d="M40.218 41.017 38.6 40.6c-.544-.142-1.01.069-1.384.238-.215.097-.42.188-.58.188-.176 0-.305-.056-.536-.167-.266-.127-.597-.283-1.036-.283-.612 0-1.2.265-1.673.477-.103.047-.203.092-.298.131a.78.78 0 0 0 .6 1.438c.108-.046.221-.095.336-.147.356-.16.758-.341 1.035-.341.084 0 .19.047.367.132.283.134.67.318 1.206.318.494 0 .896-.18 1.218-.325.126-.058.317-.144.355-.15l1.618.418a.78.78 0 1 0 .39-1.508zM37.852 43.133c-.7.419-1.427.41-2.282-.024a.78.78 0 0 0-.705 1.39c.661.336 1.306.502 1.931.502a3.59 3.59 0 0 0 1.852-.528.778.778 0 1 0-.796-1.34z" fill="#00DFFF"/><path d="M75.79 41.246V9.96c.052-.246.087-.495.087-.748 0-3.552-5.206-6.633-14.658-8.676a.779.779 0 0 0-.329 1.523c9.902 2.14 13.43 5.098 13.43 7.153 0 2.673-5.49 5.529-14.576 7.365a2.82 2.82 0 0 0-1.087-.568c-.4-.102-.803-.222-1.205-.338v-1.664a3.535 3.535 0 0 0-3.532-3.532h-.428c-.61-1.413-1.341-2.715-2.21-3.87C47.982 2.223 43.096 0 36.76 0 30.412 0 25.512 2.231 22.2 6.632c-.863 1.148-1.59 2.442-2.2 3.845h-.454a3.536 3.536 0 0 0-3.532 3.532v1.661c-.404.116-.808.237-1.21.339a2.68 2.68 0 0 0-.49.18C6.316 14.354 1.558 11.704 1.558 9.214c0-2.839 6.077-5.809 15.482-7.566a.778.778 0 1 0-.287-1.53C6.107 2.105 0 5.42 0 9.212c0 .144.021.285.038.427 0 .014-.008.025-.008.04v32.126c-.013.12-.03.24-.03.36 0 5.392 12.082 9.065 26.364 10.365v3.67c0 .153.049.298.132.418.876 2.32 5.852 3.381 10.238 3.381 4.359 0 9.305-1.049 10.221-3.343a.775.775 0 0 0 .147-.456v-3.476c15.308-1.088 28.775-4.865 28.775-10.56 0-.277-.04-.555-.106-.83.004-.03.02-.057.02-.09zM59.344 18.905v4.3c0 .582-.51 1.24-1.068 1.382-.276.07-.55.149-.823.225v-6.247a86.375 86.375 0 0 0 1.706-.303c.115.206.185.43.185.643zM27.922 47.836c2.068 1.886 4.382 3.17 6.87 3.619-2.386-.053-4.68-.17-6.87-.338v-3.28zm17.623 3.444c-2.244.129-4.59.2-7.018.21 2.544-.414 4.91-1.71 7.018-3.637v3.427zm-8.784-1.2c-7.214 0-13.227-8.355-15.871-18.02h11.643l1.887-1.782a.553.553 0 0 1 .41-.163h3.805c.167 0 .29.049.41.164l1.887 1.78h11.637c-2.642 9.672-8.628 18.022-15.808 18.022zm17.16-19.579h-12.37l-1.435-1.354a2.12 2.12 0 0 0-1.48-.59H34.83c-.56 0-1.072.205-1.479.59L31.915 30.5H19.547a1.977 1.977 0 0 1-1.974-1.974V18.42c6.16 1.095 13.308 1.68 20.366 1.68 6.156 0 12.378-.447 17.956-1.286v9.713a1.976 1.976 0 0 1-1.974 1.974zm-37.907-5.689c-.275-.076-.551-.157-.827-.227-.567-.143-1.064-.788-1.064-1.38v-4.3c0-.383.207-.786.504-1.064.455.1.918.194 1.388.287v6.684zm37.052-7.158c-4.516.56-9.604.888-15.127.888-6.53 0-12.452-.458-17.538-1.217V16.32c0-.748.71-1.357 1.584-1.357h29.497c.873 0 1.584.609 1.584 1.357v1.333zM23.446 7.569c3.003-3.989 7.482-6.01 13.315-6.01 5.82 0 10.287 2.013 13.277 5.985a16.653 16.653 0 0 1 1.737 2.933H21.719c.497-1.052 1.066-2.03 1.727-2.908zm-3.9 4.465h34.375c1.088 0 1.974.886 1.974 1.974v3.256c-.417.064-.843.124-1.271.184V16.32c0-1.607-1.41-2.915-3.142-2.915H21.985c-1.733 0-3.142 1.308-3.142 2.915v.758c-.43-.073-.853-.147-1.27-.223v-2.847c0-1.089.885-1.975 1.974-1.975zM1.563 42.204c.007-.043.026-.082.026-.126V12.443c2.11 2.06 6.19 3.75 11.38 5.015a2.929 2.929 0 0 0-.403 1.446v4.3c0 1.303.984 2.574 2.24 2.892.402.102.806.221 1.21.336v2.095c0 1.842 1.424 3.343 3.226 3.5 1.427 5.507 3.91 10.61 7.124 14.229v4.731c-14.998-1.36-24.733-5.228-24.803-8.783zm43.983 13.758c-.005.015-.01.031-.014.049-.25.993-3.53 2.43-8.797 2.43-5.269 0-8.547-1.437-8.799-2.43l-.013-.048v-3.3c3.283.256 6.66.39 10.017.39a130.5 130.5 0 0 0 7.606-.225v3.133zm1.558-4.782V46.27c3.206-3.62 5.686-8.727 7.115-14.241 1.806-.154 3.235-1.657 3.235-3.503v-2.094c.402-.113.804-.233 1.205-.335 1.258-.318 2.244-1.59 2.244-2.893v-4.3a2.8 2.8 0 0 0-.173-.955c6.17-1.291 11.084-3.137 13.503-5.451v28.746l.002.006a.755.755 0 0 0 .007.356c.052.185.08.373.08.559-.002 3.75-10.805 7.865-27.218 9.014z" fill="#00DFFF"/></svg>