<svg width="72" height="60" fill="none" xmlns="http://www.w3.org/2000/svg"><path d="M33.092 43.498a.735.735 0 0 0 .285-.058c.103-.043.209-.091.32-.14.338-.152.722-.325.986-.325.08 0 .18.046.35.126.27.129.639.304 1.15.304.47 0 .853-.172 1.161-.311a3.65 3.65 0 0 1 .338-.143l1.543.399a.743.743 0 1 0 .371-1.437l-1.542-.399c-.517-.135-.963.065-1.32.226-.205.093-.4.18-.55.18-.17 0-.292-.055-.514-.16-.252-.12-.568-.27-.986-.27-.583 0-1.145.253-1.595.456a11.17 11.17 0 0 1-.283.124.743.743 0 0 0 .286 1.428zM19.229 20.514h1.484V18.38c0-.713.677-1.293 1.508-1.293h28.11c.831 0 1.507.58 1.507 1.293v2.134h1.484V18.38c0-1.531-1.343-2.777-2.992-2.777H22.222c-1.65 0-2.994 1.246-2.994 2.777v2.134zM37.343 43.93c-.67.396-1.36.39-2.177-.023a.743.743 0 1 0-.67 1.324c.63.319 1.244.479 1.839.479.61 0 1.2-.168 1.764-.502a.743.743 0 0 0-.756-1.278z" fill="#7F52FF"/><path d="M71.286 6.38C69.193 1.72 49.354 0 35.773 0 18.35 0 .596 2.402.088 6.995A.73.73 0 0 0 0 7.329l.084 40.025c0 .113.03.217.076.314.006.048.003.097.019.145 1.202 3.486 12.972 5.624 26.216 6.307v2.26c0 .147.047.285.127.4.835 2.21 5.577 3.22 9.754 3.22 4.154 0 8.866-.998 9.74-3.183a.734.734 0 0 0 .141-.437v-2.315c12.57-.722 23.549-2.767 25.113-6.043a.738.738 0 0 0 .232-.535V6.902a.735.735 0 0 0-.216-.522zM44.673 56.151a.548.548 0 0 0-.013.047c-.24.946-3.363 2.317-8.384 2.317-5.02 0-8.143-1.37-8.383-2.317a.534.534 0 0 0-.013-.046v-1.963a184.26 184.26 0 0 0 16.794-.046v2.008zm7.98-41.855c1.038 0 1.88.844 1.88 1.88v13.835a1.882 1.882 0 0 1-1.88 1.881H40.868l-1.37-1.29a2.017 2.017 0 0 0-1.408-.562h-3.627c-.535 0-1.022.195-1.41.561l-1.369 1.291H19.9a1.883 1.883 0 0 1-1.88-1.88V16.176c0-1.037.843-1.881 1.88-1.881h32.754zM21.97 12.81a15.943 15.943 0 0 1 1.646-2.77c2.86-3.801 7.129-5.728 12.687-5.728 5.545 0 9.803 1.919 12.652 5.704a15.96 15.96 0 0 1 1.655 2.795h-28.64v-.001zm10.305 20.566 1.798-1.697a.525.525 0 0 1 .39-.155h3.626c.158 0 .275.047.39.156l1.799 1.696h11.088c-2.52 9.216-8.22 17.173-15.064 17.173-6.874 0-12.603-7.962-15.123-17.173h11.096zM27.879 48.41c2.482 2.264 5.335 3.624 8.423 3.624 3.068 0 5.902-1.354 8.37-3.608v4.24c-2.804.136-5.78.21-8.9.21-2.748 0-5.384-.06-7.893-.168V48.41zm18.279 4.177v-5.67c3.055-3.448 5.418-8.314 6.778-13.568 1.722-.147 3.082-1.579 3.082-3.338v-1.995c.385-.109.767-.223 1.15-.32 1.199-.303 2.137-1.514 2.137-2.756v-4.098c0-1.243-.938-2.455-2.137-2.758-.383-.098-.765-.212-1.15-.322v-1.586a3.369 3.369 0 0 0-3.365-3.366h-.407c-.582-1.346-1.278-2.588-2.105-3.688-3.146-4.177-7.801-6.295-13.838-6.295-6.05 0-10.718 2.126-13.874 6.32-.823 1.094-1.516 2.327-2.096 3.664h-.434a3.37 3.37 0 0 0-3.365 3.366v1.582c-.385.11-.77.226-1.154.323-1.196.303-2.133 1.516-2.133 2.76v4.098c0 1.242.937 2.453 2.133 2.756.384.097.77.211 1.154.32v1.996c0 1.755 1.357 3.186 3.074 3.336 1.36 5.246 3.726 10.108 6.787 13.558v5.734c-14.312-.738-24.046-3.088-24.812-5.31-.003-.01-.012-.015-.014-.024L1.485 7.444a.746.746 0 0 0 .067-.267c.126-2.377 13.206-5.692 34.22-5.692 21.202 0 34.222 3.329 34.222 5.715a.64.64 0 0 1-.106.329.73.73 0 0 0 .129.903v38.789c-.015.03-.038.054-.048.086-.67 2.181-9.96 4.486-23.811 5.28zm9.86-33.279c.263.073.523.15.785.216.534.135 1.018.763 1.018 1.318v4.098c0 .554-.484 1.182-1.018 1.316-.261.067-.522.143-.785.215v-7.163zm-39.484 7.163c-.263-.073-.526-.15-.79-.216-.54-.137-1.013-.751-1.013-1.315v-4.098c0-.567.474-1.185 1.014-1.321.262-.067.525-.144.789-.218v7.168z" fill="#7F52FF"/><path d="M61.809 19.77c.41 0 .742-.332.742-.741v-1.485a.742.742 0 1 0-1.485 0v1.485c0 .409.334.742.743.742zM61.809 37.585c.41 0 .742-.333.742-.742v-1.485a.742.742 0 1 0-1.485 0v1.485c0 .41.334.742.743.742zM61.809 31.647c.41 0 .742-.332.742-.742V29.42a.742.742 0 1 0-1.485 0v1.485c0 .41.334.742.743.742zM61.809 25.709c.41 0 .742-.333.742-.743v-1.484a.742.742 0 1 0-1.485 0v1.484c0 .41.334.743.743.743zM69.214 44.422a13.72 13.72 0 0 0-1.425-.66.744.744 0 0 0-.552 1.38c.48.192.907.389 1.27.585a.744.744 0 0 0 1.007-.298.744.744 0 0 0-.3-1.007zM63.422 42.444c-.279-.065-.579-.127-.872-.191v-.957a.742.742 0 1 0-1.485 0v1.485c0 .013.008.023.01.037a.732.732 0 0 0 .576.758c.496.102.973.207 1.431.314a.743.743 0 0 0 .34-1.446zM63.237 10.435c-.456.108-.933.215-1.43.319a.726.726 0 0 0-.385.234.735.735 0 0 0-.357.618v1.485a.743.743 0 0 0 1.485 0v-.982c.35-.077.702-.152 1.031-.23a.741.741 0 1 0-.344-1.444zM68.637 8.563c-.357.2-.779.403-1.255.599a.742.742 0 1 0 .562 1.373 12.698 12.698 0 0 0 1.422-.679.741.741 0 0 0 .282-1.011.745.745 0 0 0-1.011-.282zM10.56 28.678a.743.743 0 0 0-.742.742v1.485a.743.743 0 0 0 1.485 0V29.42a.743.743 0 0 0-.742-.742zM10.56 16.802a.743.743 0 0 0-.742.742v1.485a.743.743 0 0 0 1.485 0v-1.485a.743.743 0 0 0-.742-.742zM10.56 34.616a.743.743 0 0 0-.742.742v1.485a.743.743 0 0 0 1.485 0v-1.485a.743.743 0 0 0-.742-.742zM10.56 22.74a.743.743 0 0 0-.742.742v1.484a.743.743 0 0 0 1.485 0v-1.484a.743.743 0 0 0-.742-.742zM10.56 40.554a.743.743 0 0 0-.742.742v.957c-.293.064-.592.126-.87.191a.742.742 0 1 0 .339 1.446 52.83 52.83 0 0 1 1.43-.315c.361-.074.592-.401.578-.758 0-.014.007-.024.007-.037v-1.485a.742.742 0 0 0-.742-.741zM10.947 10.988a.725.725 0 0 0-.386-.234c-.496-.104-.973-.21-1.43-.32a.742.742 0 0 0-.344 1.444c.33.078.682.154 1.032.23v.983a.743.743 0 0 0 1.484 0v-1.485a.73.73 0 0 0-.356-.618zM4.58 43.763a13.7 13.7 0 0 0-1.424.659.742.742 0 1 0 .708 1.304c.361-.196.789-.393 1.27-.585a.742.742 0 0 0-.553-1.378zM3.003 9.856c.41.231.888.46 1.422.678a.742.742 0 1 0 .563-1.373 11.259 11.259 0 0 1-1.255-.6.744.744 0 0 0-.73 1.295z" fill="#7F52FF"/></svg>